{"title":"The Muppets 2011 1080p Brrip x264 AC3 5 1(6 ch) Ratzz MKV","uid":7086537,"size":2569196451,"categoryP":"video","categoryS":"hd___movies","magnet":"?xt=urn:btih:151542f6571e885d41e4217b7a0fb789a468be06&amp;dn=The+Muppets+2011+1080p+Brrip+x264+AC3+5+1%286+ch%29+Ratzz+MKV&amp;tr=udp%3A%2F%2Ftracker.openbittorrent.com%3A80&amp;tr=udp%3A%2F%2Fopen.demonii.com%3A1337&amp;tr=udp%3A%2F%2Ftracker.coppersurfer.tk%3A6969&amp;tr=udp%3A%2F%2Fexodus.desync.com%3A6969","seeders":0,"leechers":1,"uploader":"afterratzz","files":7,"time":1331206788,"description":"Encoded by Ratzz.\n\n\n\n\n\n\n\n\nGeneral\nComplete name                                       : The Muppets 2011 1080p Brrip x264 AC3 5 1(6 ch) Ratzz MKV.mkv\nFormat                                              : Matroska\nFile size                                           : 2.39 GiB\nDuration                                            : 1h 42mn\nOverall bit rate                                    : 3 333 Kbps\nMovie name                                          : The Muppets 1080p Brrip x264 AC3 5 1(6 ch) Ratzz MKV\n\n\n\nVideo\nID                                                  : 1\nFormat                                              : AVC\nFormat profile                                      : &lt;a class=&quot;__cf_email__&quot; href=&quot;/cdn-cgi/l/email-protection&quot; data-cfemail=&quot;0e466769664e423b203f&quot;&gt;[email&amp;#160;protected]&lt;/a&gt;&lt;script cf-hash='f9e31' type=&quot;text/javascript&quot;&gt;\n/* &lt;![CDATA[ */!function(){try{var t=&quot;currentScript&quot;in document?document.currentScript:function(){for(var t=document.getElementsByTagName(&quot;script&quot;),e=t.length;e--;)if(t[e].getAttribute(&quot;cf-hash&quot;))return t[e]}();if(t&amp;&amp;t.previousSibling){var e,r,n,i,c=t.previousSibling,a=c.getAttribute(&quot;data-cfemail&quot;);if(a){for(e=&quot;&quot;,r=parseInt(a.substr(0,2),16),n=2;a.length-n;n+=2)i=parseInt(a.substr(n,2),16)^r,e+=String.fromCharCode(i);e=document.createTextNode(e),c.parentNode.replaceChild(e,c)}}}catch(u){}}();/* ]]&gt; */&lt;/script&gt;\nFormat settings, ReFrames                           : 3 frames\nCodec ID                                            : V_MPEG4/ISO/AVC\nDuration                                            : 1h 42mn\nBit rate mode                                       : Variable\nBit rate                                            : 2 693 Kbps\nMaximum bit rate                                    : 300 Mbps\nWidth                                               : 1 920 pixels\nHeight                                              : 1 080 pixels\nDisplay aspect ratio                                : 16:9\nFrame rate                                          : 23.976 fps\nStream size                                         : 1.89 GiB (79%)\n\nAudio\nID                                                  : 2\nFormat                                              : AC-3\nMode extension                                      : CM (complete main)\nDuration                                            : 1h 42mn\nBit rate mode                                       : Constant\nBit rate                                            : 640 Kbps\nChannel(s)                                          : 6 channels\nChannel positions                                   : Front: L C R, Side: L R, LFE\nSampling rate                                       : 48.0 KHz\nCompression mode                                    : Lossy\nStream size                                         : 470 MiB (19%)\nLanguage                                            : English\n\n\nSubtitles                                           : eng .srt included.\n\n\n\n\n\nPoster :\n &lt;a href=&quot;\nhttp://img534.imageshack.us/img534/3810/themuppetsblurayposter.jpg&quot; rel=&quot;nofollow&quot; target=&quot;_NEW&quot;&gt;\nhttp://img534.imageshack.us/img534/3810/themuppetsblurayposter.jpg&lt;/a&gt;\n\n\nScreen shots :\n\n &lt;a href=&quot;\nhttp://img252.imageshack.us/img252/5941/themuppets1080pbrripx26.jpg&quot; rel=&quot;nofollow&quot; target=&quot;_NEW&quot;&gt;\nhttp://img252.imageshack.us/img252/5941/themuppets1080pbrripx26.jpg&lt;/a&gt;\n &lt;a href=&quot;\nhttp://img29.imageshack.us/img29/5941/themuppets1080pbrripx26.jpg&quot; rel=&quot;nofollow&quot; target=&quot;_NEW&quot;&gt;\nhttp://img29.imageshack.us/img29/5941/themuppets1080pbrripx26.jpg&lt;/a&gt;\n &lt;a href=&quot;\nhttp://img3.imageshack.us/img3/5941/themuppets1080pbrripx26.jpg&quot; rel=&quot;nofollow&quot; target=&quot;_NEW&quot;&gt;\nhttp://img3.imageshack.us/img3/5941/themuppets1080pbrripx26.jpg&lt;/a&gt;\n\n\n\n\n\n\npls seed back after download and provide feedback.\nthank you.","torrent":{"xt":"urn:btih:151542f6571e885d41e4217b7a0fb789a468be06","amp;dn":"The+Muppets+2011+1080p+Brrip+x264+AC3+5+1%286+ch%29+Ratzz+MKV","amp;tr":["udp%3A%2F%2Ftracker.openbittorrent.com%3A80","udp%3A%2F%2Fopen.demonii.com%3A1337","udp%3A%2F%2Ftracker.coppersurfer.tk%3A6969","udp%3A%2F%2Fexodus.desync.com%3A6969"],"infoHash":"151542f6571e885d41e4217b7a0fb789a468be06","infoHashBuffer":{"type":"Buffer","data":[21,21,66,246,87,30,136,93,65,228,33,123,122,15,183,137,164,104,190,6]},"announce":[],"urlList":[]}}